Its my collection, of my favourites Band 


Death horse
Dont cry
Estranged
Live and let die
November Rain
Paradise city
Patience
Since i don´t have you
Sweet child of mine
Welcome to the jungle
Yesterday

Quality example:

Video
ID                               : 0
Format                           : MPEG-4 Visual
Format settings, BVOP            : No
Format settings, QPel            : No
Format settings, GMC             : No warppoints
Format settings, Matrix          : Default (H.263)
Codec ID                         : DX50
Codec ID/Hint                    : DivX 5
Duration                         : 9mn 12s
Bit rate                         : 1 497 Kbps
Width                            : 640 pixels
Height                           : 480 pixels
Display aspect ratio             : 4/3
Frame rate                       : 29.970 fps
Resolution                       : 24 bits
Colorimetry                      : 4:2:0
Scan type                        : Progressive
Bits/(Pixel*Frame)               : 0.163
Stream size                      : 98.7 MiB (91%)
Title                            : Video 
Writing library                  : DivX 2151

Audio
ID                               : 1
Format                           : MPEG Audio
Format version                   : Version 1
Format profile                   : Layer 3
Codec ID                         : 55
Codec ID/Hint                    : MP3
Duration                         : 9mn 12s
Bit rate mode                    : Constant
Bit rate                         : 128 Kbps
Channel(s)                       : 2 channels
Sampling rate                    : 48.0 KHz
Resolution                       : 16 bits
Stream size                      : 8.44 MiB (8%)
Alignment                        : Split accross interleaves
Interleave, duration             : 33 ms (1.00 video frame)
Interleave, preload duration     : 500 ms
Title                            : Audio


[URL=http://www.speedtest.net][IMG]http://www.speedtest.net/result/197458320.png[/IMG][/URL]